<svg width="24" height="24" viewBox="0 0 24 24" fill="none" xmlns="http://www.w3.org/2000/svg">
<path d="M5.22334 19.7264C4.477 18.9604 3.89492 18.075 3.47709 17.0701C3.05942 16.0655 2.85059 15.038 2.85059 13.9876C2.85059 12.7591 3.06709 11.6317 3.50009 10.6054C3.93309 9.57904 4.57859 8.63687 5.43659 7.77887C6.50975 6.70971 8.03959 5.94062 10.0261 5.47162C12.0128 5.00262 14.4503 4.80179 17.3386 4.86913C17.7118 4.88579 18.0517 4.96146 18.3583 5.09612C18.6648 5.23062 18.9423 5.41821 19.1908 5.65887C19.4342 5.90271 19.6271 6.17804 19.7696 6.48487C19.9119 6.79171 19.9906 7.13379 20.0056 7.51113C20.0516 8.95529 20.0329 10.2892 19.9496 11.5129C19.8663 12.7367 19.7038 13.8506 19.4621 14.8546C19.2204 15.8585 18.9045 16.7518 18.5143 17.5346C18.1242 18.3173 17.6533 18.9851 17.1018 19.5381C16.252 20.392 15.3267 21.0396 14.3258 21.4811C13.325 21.9225 12.2571 22.1431 11.1221 22.1431C9.94942 22.1431 8.876 21.9483 7.90184 21.5586C6.9275 21.169 6.03467 20.5582 5.22334 19.7264ZM7.93009 19.5709C8.34942 19.8542 8.83342 20.0689 9.38209 20.2149C9.93075 20.3609 10.5097 20.4339 11.1188 20.4339C11.9948 20.4339 12.8453 20.2515 13.6701 19.8869C14.4948 19.5222 15.2428 18.9959 15.9143 18.3079C16.3922 17.8259 16.7904 17.2005 17.1091 16.4316C17.4278 15.6628 17.6811 14.7756 17.8691 13.7701C18.0571 12.7645 18.1785 11.6555 18.2333 10.4434C18.288 9.23121 18.284 7.94288 18.2213 6.57838C16.6667 6.54104 15.2724 6.56088 14.0386 6.63788C12.8049 6.71488 11.7161 6.85338 10.7721 7.05338C9.82809 7.25338 9.01842 7.50854 8.34309 7.81888C7.66775 8.12921 7.11934 8.50337 6.69784 8.94137C6.00984 9.64221 5.4805 10.3913 5.10984 11.1886C4.73917 11.986 4.55384 12.7938 4.55384 13.6121C4.55384 14.395 4.71967 15.2203 5.05134 16.0881C5.38317 16.956 5.79967 17.6545 6.30084 18.1839C7.159 16.5744 8.19875 15.1276 9.42009 13.8436C10.6416 12.5596 11.9599 11.5326 13.3751 10.7626C11.9411 12.0166 10.7761 13.3708 9.88009 14.8251C8.98392 16.2795 8.33392 17.8614 7.93009 19.5709Z" fill="#1B391B"/>
</svg>
